<svg width="400" height="400" viewBox="0 0 400 400" xmlns="http://www.w3.org/2000/svg">
  <defs>
    <!-- ë©”ì¸ ê·¸ë¼?°ì´??-->
    <linearGradient id="mainGradient" x1="0%" y1="0%" x2="100%" y2="100%">
      <stop offset="0%" style="stop-color:#0064FF"/>
      <stop offset="100%" style="stop-color:#00C896"/>
    </linearGradient>
    
    <!-- ë°°ê²½ ê·¸ë¼?°ì´??-->
    <linearGradient id="bgGradient" x1="0%" y1="0%" x2="100%" y2="100%">
      <stop offset="0%" style="stop-color:#0a0a0f"/>
      <stop offset="100%" style="stop-color:#12121a"/>
    </linearGradient>
    
    <!-- ê¸€ë¡œìš° ?¨ê³¼ -->
    <filter id="glow" x="-50%" y="-50%" width="200%" height="200%">
      <feGaussianBlur stdDeviation="8" result="coloredBlur"/>
      <feMerge>
        <feMergeNode in="coloredBlur"/>
        <feMergeNode in="SourceGraphic"/>
      </feMerge>
    </filter>
  </defs>
  
  <!-- ë°°ê²½ ??-->
  <circle cx="200" cy="200" r="200" fill="url(#bgGradient)"/>
  
  <!-- ?¸ê³½ ë§?-->
  <circle cx="200" cy="200" r="185" fill="none" stroke="url(#mainGradient)" stroke-width="3" opacity="0.5"/>
  
  <!-- ë©”ì¸ "I" ?„ì´ì½?-->
  <g filter="url(#glow)">
    <!-- ?ìŠ¹ ?”ì‚´??+ I ì¡°í•© -->
    <path d="
      M 160 280 
      L 160 160 
      L 120 200 
      L 160 160 
      L 200 200 
      L 160 160 
      L 160 120 
      L 200 80 
      L 240 120 
      L 240 280 
      Z
    " fill="url(#mainGradient)" opacity="0.9"/>
    
    <!-- ?¬í”Œ??I ?•íƒœ -->
    <rect x="155" y="140" width="90" height="140" rx="8" fill="url(#mainGradient)"/>
    
    <!-- ?ë‹¨ ?”ì‚´??-->
    <polygon points="200,70 240,120 220,120 220,145 180,145 180,120 160,120" fill="url(#mainGradient)"/>
  </g>
  
  <!-- UFLUX ?ìŠ¤??(?˜ë‹¨) -->
  <text x="200" y="340" text-anchor="middle" font-family="Arial Black, sans-serif" font-size="36" font-weight="bold" fill="url(#mainGradient)">
    UFLUX
  </text>
</svg>
